<svg width="142" height="24" viewBox="0 0 142 24" fill="none" xmlns="http://www.w3.org/2000/svg">
  <svg class="w-2 h-2 text-purple-600" aria-hidden="true" xmlns="http://www.w3.org/2000/svg" fill="purple" viewBox="0 0 20 20">
    <path d="m19.707 9.293-2-2-7-7a1 1 0 0 0-1.414 0l-7 7-2 2a1 1 0 0 0 1.414 1.414L2 10.414V18a2 2 0 0 0 2 2h3a1 1 0 0 0 1-1v-4a1 1 0 0 1 1-1h2a1 1 0 0 1 1 1v4a1 1 0 0 0 1 1h3a2 2 0 0 0 2-2v-7.586l.293.293a1 1 0 0 0 1.414-1.414Z"/>
  </svg>
  <text x="10" y="18" font-size="14" fill="purple" font-weight="bold">Estatery</text>
</svg>